<?xml version="1.0" encoding="UTF-8"?>
<!-- Generator: Adobe Illustrator 28.1.0, SVG Export Plug-In . SVG Version: 6.00 Build 0)  -->
<svg xmlns="http://www.w3.org/2000/svg" xmlns:xlink="http://www.w3.org/1999/xlink" version="1.1" id="レイヤー_1" x="0px" y="0px" viewBox="0 0 30 16" style="enable-background:new 0 0 30 16;" xml:space="preserve">
<style type="text/css">
	.st0{fill:url(#SVGID_1_);}
	.st1{fill:#754C24;}
</style>
<g>
	<linearGradient id="SVGID_1_" gradientUnits="userSpaceOnUse" x1="15" y1="0.2087" x2="15" y2="15.6759">
		<stop offset="0" style="stop-color:#FFF9AC"></stop>
		<stop offset="0.5" style="stop-color:#FFF000"></stop>
		<stop offset="1" style="stop-color:#FFDC00"></stop>
	</linearGradient>
	<path class="st0" d="M30,13c0,1.65-1.35,3-3,3H3c-1.65,0-3-1.35-3-3V3c0-1.65,1.35-3,3-3h24c1.65,0,3,1.35,3,3V13z"></path>
</g>
<g>
	<g>
		<path class="st1" d="M5.6,8.39c0-0.29,0-0.42,0.03-1.26c-0.24,0.43-0.54,0.81-0.88,1.2C4.62,7.85,4.44,7.43,4.22,7.01    C4.95,6.32,5.55,5.4,6.04,4.26C6.32,3.6,6.5,3.04,6.55,2.63l1.23,0.39l-0.36,1C7.2,4.57,7.03,4.97,6.75,5.46v6    c0,0.49,0.02,0.91,0.08,1.36H5.52c0.06-0.41,0.08-0.84,0.08-1.38V8.39z M10.24,5.04C9.54,5.18,8.62,5.32,7.99,5.4    C7.84,4.88,7.77,4.71,7.5,4.27c2.51-0.21,4.93-0.78,5.89-1.39l0.79,1.06c-0.23,0.07-0.29,0.09-0.62,0.21    c-0.81,0.29-1.39,0.46-2.12,0.65v2.41h1.91c0.52,0,0.88-0.02,1.24-0.08v1.28c-0.35-0.04-0.72-0.07-1.24-0.07h-1.91v2.93h1.53    c0.56,0,0.92-0.02,1.27-0.07v1.24c-0.37-0.05-0.75-0.08-1.27-0.08H8.87c-0.51,0-0.89,0.02-1.27,0.08v-1.24    c0.34,0.04,0.7,0.07,1.27,0.07h1.36V8.34H8.5c-0.53,0-0.9,0.02-1.25,0.07V7.15c0.33,0.04,0.7,0.07,1.25,0.07h1.74V5.04z"></path>
		<path class="st1" d="M15.39,12.05c0.66-0.73,0.92-1.16,1.21-1.94l1.07,0.44c-0.34,0.88-0.63,1.38-1.27,2.19L15.39,12.05z     M19.82,3.32c0-0.23-0.02-0.45-0.07-0.69h1.36c-0.04,0.23-0.07,0.43-0.07,0.69v0.1h2.6c0.53,0,0.85-0.02,1.17-0.07v1.07    c-0.35-0.03-0.59-0.04-1.18-0.04h-0.62c-0.11,0.24-0.18,0.4-0.32,0.65h1.5c0.64,0,0.94-0.01,1.25-0.05v1.07    c-0.32-0.04-0.63-0.06-1.27-0.06h-7.35c-0.64,0-0.94,0.01-1.27,0.06V4.97c0.32,0.04,0.67,0.05,1.31,0.05h1.38    c-0.1-0.24-0.15-0.36-0.3-0.65h-0.59c-0.57,0-0.8,0.01-1.13,0.04V3.35c0.31,0.04,0.64,0.07,1.17,0.07h2.42V3.32z M17.82,9.88    c-0.47,0-0.77,0.01-1.08,0.03c0.03-0.24,0.04-0.42,0.04-0.83V7.35c0-0.44-0.01-0.69-0.04-0.98c0.31,0.02,0.59,0.03,1.19,0.03h5.12    c0.66,0,0.89-0.01,1.2-0.03c-0.03,0.23-0.04,0.51-0.04,0.98v1.64c0,0.36,0.01,0.61,0.04,0.92c-0.14-0.01-0.15-0.01-0.37-0.02    c-0.05,0-0.15,0-0.29,0c-0.13-0.01-0.23-0.01-0.31-0.01h-2.5c0.33,0.22,0.5,0.35,1.09,0.87l-0.91,0.71    c-0.5-0.57-0.53-0.59-1.24-1.18l0.54-0.41H17.82z M17.93,7.74h5.13V7.29h-5.13V7.74z M17.93,9h5.13V8.55h-5.13V9z M19.24,11.51    c0,0.13,0.03,0.18,0.18,0.21c0.12,0.03,0.57,0.06,0.95,0.06c1.28,0,1.63-0.04,1.74-0.21c0.08-0.13,0.11-0.39,0.11-0.9    c0.4,0.16,0.62,0.23,1.13,0.3c-0.03,0.82-0.12,1.18-0.32,1.4c-0.31,0.33-0.76,0.4-2.66,0.4c-1.92,0-2.28-0.12-2.28-0.77v-0.97    c0-0.36-0.01-0.59-0.06-0.81h1.27c-0.04,0.26-0.05,0.43-0.05,0.81V11.51z M21.46,5.02c0.13-0.24,0.21-0.38,0.32-0.65h-2.6    c0.11,0.21,0.17,0.35,0.29,0.65H21.46z M24.6,12.61c-0.54-0.9-0.87-1.34-1.51-2.07l0.97-0.55c0.68,0.74,1.06,1.21,1.53,1.93    L24.6,12.61z"></path>
	</g>
</g>
</svg>
