<?xml version="1.0" encoding="UTF-8"?>
<!-- Generator: Adobe Illustrator 28.1.0, SVG Export Plug-In . SVG Version: 6.00 Build 0)  -->
<svg xmlns="http://www.w3.org/2000/svg" xmlns:xlink="http://www.w3.org/1999/xlink" version="1.1" id="レイヤー_1" x="0px" y="0px" viewBox="0 0 30 16" style="enable-background:new 0 0 30 16;" xml:space="preserve">
<style type="text/css">
	.st0{fill:url(#SVGID_1_);}
	.st1{fill:#FFFFFF;stroke:#C1272D;stroke-width:0.2;stroke-miterlimit:10;}
</style>
<g>
	<linearGradient id="SVGID_1_" gradientUnits="userSpaceOnUse" x1="0" y1="8" x2="30" y2="8">
		<stop offset="0" style="stop-color:#EE7E77"></stop>
		<stop offset="0.5" style="stop-color:#E7334C"></stop>
		<stop offset="1" style="stop-color:#DA0439"></stop>
	</linearGradient>
	<path class="st0" d="M30,13c0,1.65-1.35,3-3,3H3c-1.65,0-3-1.35-3-3V3c0-1.65,1.35-3,3-3h24c1.65,0,3,1.35,3,3V13z"></path>
</g>
<g>
	<g>
		<path class="st1" d="M6.53,6.32c-0.27,1.84-0.48,2.64-1.08,4.17L4.31,9.92C4.9,8.56,5.12,7.77,5.36,6.1L6.53,6.32z M7.15,11.4    c-0.79,0.55-1.13,0.77-1.99,1.21c-0.26-0.46-0.44-0.68-0.83-1.04c1.07-0.47,1.89-0.96,2.82-1.64v-3.7c0-0.43-0.01-0.64-0.07-1.12    h1.33C8.37,5.45,8.35,5.8,8.35,6.2v2.72c0.83-0.78,1.68-1.83,2.35-2.88c0.58-0.92,1.08-1.99,1.23-2.67l1.27,0.51    c-0.13,0.23-0.13,0.23-0.43,0.85c-0.78,1.59-1.65,2.9-2.76,4.18C9.5,9.48,9.05,9.91,8.35,10.48v0.77c0,0.28,0.29,0.35,1.33,0.35    c0.98,0,1.35-0.08,1.49-0.31c0.15-0.28,0.24-0.97,0.26-2.08c0.47,0.23,0.71,0.32,1.17,0.42c-0.24,2.89-0.42,3.07-2.98,3.07    c-2.01,0-2.46-0.22-2.46-1.18V11.4z M7.77,2.65c1.47,0.58,2.05,0.86,3.21,1.57l-0.73,1.06C9.42,4.65,8.5,4.16,7.04,3.59L7.77,2.65    z M13.01,6.22c0.73,1.39,1.14,2.4,1.69,4.14l-1.17,0.63c-0.52-1.95-0.81-2.74-1.61-4.23L13.01,6.22z"></path>
		<path class="st1" d="M20.18,10.71c-0.38,0-0.62,0.01-0.87,0.03c0.02-0.3,0.03-0.65,0.03-1.03V9.52c-1.03,1.42-1.95,2.27-3.38,3.13    c-0.19-0.43-0.39-0.77-0.69-1.13c0.85-0.45,1.44-0.89,2.08-1.55c0.47-0.47,0.73-0.81,1.01-1.32l0.98,0.78V5.89    c0-0.37-0.01-0.66-0.04-1.01c0.24,0.02,0.41,0.03,0.92,0.03h0.92c0.15-0.31,0.25-0.54,0.34-0.78h-1.32    c-0.54,0-0.85,0.01-1.16,0.04V3.58c-0.56,0.58-0.56,0.58-0.9,0.88c-0.63,0.55-1.42,1.09-2.17,1.47c-0.18-0.4-0.41-0.84-0.62-1.12    c0.9-0.42,1.42-0.75,1.99-1.24c0.35-0.32,0.59-0.59,0.78-0.88l0.91,0.7V3c0.37,0.04,0.77,0.07,1.27,0.07h3.94    c0.52,0,0.91-0.02,1.3-0.07v1.18c-0.26-0.03-0.57-0.04-1.2-0.04h-1.59c-0.09,0.24-0.21,0.5-0.35,0.78h1.56    c0.58,0,0.83-0.01,1.09-0.03c-0.03,0.3-0.04,0.59-0.04,1.06v3.67c0,0.52,0.01,0.81,0.04,1.13c-0.32-0.02-0.62-0.03-0.98-0.03    h-0.69c0.7,0.56,1.13,0.77,2.35,1.14c-0.25,0.34-0.44,0.67-0.59,1.07c-1.19-0.42-1.77-0.77-2.75-1.62l0.85-0.6h-2.46l0.7,0.6    c-0.89,0.77-1.52,1.14-2.78,1.64c-0.18-0.36-0.37-0.66-0.66-1.01c1.22-0.38,1.76-0.63,2.51-1.22H20.18z M19.25,6.35    c-0.15,0.15-0.15,0.15-0.54,0.55c-0.86,0.9-1.76,1.58-2.82,2.15c-0.14-0.37-0.31-0.7-0.58-1.17c0.83-0.38,1.35-0.71,1.96-1.23    c0.44-0.37,0.71-0.66,1-1.08L19.25,6.35z M20.49,6.5h3.33V5.9h-3.33V6.5z M20.49,8.05h3.33V7.42h-3.33V8.05z M20.49,9.66h3.33    V8.99h-3.33V9.66z"></path>
	</g>
</g>
</svg>
